<mxfile host="app.diagrams.net" modified="2023-04-11T16:35:29.029Z" agent="Mozilla/5.0 (Windows NT 10.0; Win64; x64) AppleWebKit/537.36 (KHTML, like Gecko) Chrome/111.0.0.0 Safari/537.36" etag="q2RzroZO0PatwZOWO_xY" version="21.1.4" type="device">
  <diagram id="XBptaHNUp6xFWXjbcIDQ" name="Page-1">
    <mxGraphModel dx="4435" dy="3090" grid="1" gridSize="10" guides="1" tooltips="1" connect="1" arrows="1" fold="1" page="1" pageScale="1" pageWidth="850" pageHeight="1100" math="0" shadow="0">
      <root>
        <mxCell id="0" />
        <mxCell id="1" parent="0" />
        <mxCell id="8jH8_pliTZvW4bIovDeC-4" value="" style="edgeStyle=orthogonalEdgeStyle;rounded=0;orthogonalLoop=1;jettySize=auto;html=1;" edge="1" parent="1" source="QoruymZTno_trSx14cLo-2" target="QoruymZTno_trSx14cLo-5">
          <mxGeometry relative="1" as="geometry" />
        </mxCell>
        <mxCell id="QoruymZTno_trSx14cLo-2" value="Start" style="ellipse;whiteSpace=wrap;html=1;" parent="1" vertex="1">
          <mxGeometry x="785" y="-1060" width="120" height="80" as="geometry" />
        </mxCell>
        <mxCell id="QoruymZTno_trSx14cLo-19" value="" style="edgeStyle=orthogonalEdgeStyle;rounded=0;orthogonalLoop=1;jettySize=auto;html=1;" parent="1" source="QoruymZTno_trSx14cLo-5" target="QoruymZTno_trSx14cLo-17" edge="1">
          <mxGeometry relative="1" as="geometry" />
        </mxCell>
        <mxCell id="QoruymZTno_trSx14cLo-5" value="Search deserted Island or stay put?" style="shape=parallelogram;perimeter=parallelogramPerimeter;whiteSpace=wrap;html=1;fixedSize=1;" parent="1" vertex="1">
          <mxGeometry x="740" y="-930" width="210" height="60" as="geometry" />
        </mxCell>
        <mxCell id="8jH8_pliTZvW4bIovDeC-8" value="" style="edgeStyle=orthogonalEdgeStyle;rounded=0;orthogonalLoop=1;jettySize=auto;html=1;" edge="1" parent="1" source="QoruymZTno_trSx14cLo-6" target="8jH8_pliTZvW4bIovDeC-7">
          <mxGeometry relative="1" as="geometry" />
        </mxCell>
        <mxCell id="QoruymZTno_trSx14cLo-6" value="You decide to search the island.&amp;nbsp;" style="shape=parallelogram;perimeter=parallelogramPerimeter;whiteSpace=wrap;html=1;fixedSize=1;" parent="1" vertex="1">
          <mxGeometry x="-170" y="-810" width="165.62" height="60" as="geometry" />
        </mxCell>
        <mxCell id="8jH8_pliTZvW4bIovDeC-15" value="" style="edgeStyle=orthogonalEdgeStyle;rounded=0;orthogonalLoop=1;jettySize=auto;html=1;" edge="1" parent="1" source="QoruymZTno_trSx14cLo-9" target="8jH8_pliTZvW4bIovDeC-13">
          <mxGeometry relative="1" as="geometry" />
        </mxCell>
        <mxCell id="QoruymZTno_trSx14cLo-9" value="You decide it is safer to stay in one spot. Now you try to get comfortable." style="shape=parallelogram;perimeter=parallelogramPerimeter;whiteSpace=wrap;html=1;fixedSize=1;" parent="1" vertex="1">
          <mxGeometry x="1913.5900000000001" y="-810" width="212.81" height="60" as="geometry" />
        </mxCell>
        <mxCell id="8jH8_pliTZvW4bIovDeC-32" value="" style="edgeStyle=orthogonalEdgeStyle;rounded=0;orthogonalLoop=1;jettySize=auto;html=1;" edge="1" parent="1" source="QoruymZTno_trSx14cLo-10" target="8jH8_pliTZvW4bIovDeC-30">
          <mxGeometry relative="1" as="geometry" />
        </mxCell>
        <mxCell id="QoruymZTno_trSx14cLo-10" value="You can&#39;t fall asleep. Keep trying to sleep or build a fire?" style="shape=parallelogram;perimeter=parallelogramPerimeter;whiteSpace=wrap;html=1;fixedSize=1;" parent="1" vertex="1">
          <mxGeometry x="2227.19" y="-640" width="165.62" height="60" as="geometry" />
        </mxCell>
        <mxCell id="8jH8_pliTZvW4bIovDeC-3" value="" style="edgeStyle=orthogonalEdgeStyle;rounded=0;orthogonalLoop=1;jettySize=auto;html=1;" edge="1" parent="1" source="QoruymZTno_trSx14cLo-17" target="QoruymZTno_trSx14cLo-6">
          <mxGeometry relative="1" as="geometry" />
        </mxCell>
        <mxCell id="8jH8_pliTZvW4bIovDeC-11" value="" style="edgeStyle=orthogonalEdgeStyle;rounded=0;orthogonalLoop=1;jettySize=auto;html=1;" edge="1" parent="1" source="QoruymZTno_trSx14cLo-17" target="QoruymZTno_trSx14cLo-9">
          <mxGeometry relative="1" as="geometry" />
        </mxCell>
        <mxCell id="QoruymZTno_trSx14cLo-17" value="Search Island or stay put?" style="rhombus;whiteSpace=wrap;html=1;" parent="1" vertex="1">
          <mxGeometry x="787.5" y="-820" width="115" height="80" as="geometry" />
        </mxCell>
        <mxCell id="8jH8_pliTZvW4bIovDeC-5" value="Search Island" style="text;html=1;align=center;verticalAlign=middle;resizable=0;points=[];autosize=1;strokeColor=none;fillColor=none;" vertex="1" parent="1">
          <mxGeometry x="673.24" y="-810" width="100" height="30" as="geometry" />
        </mxCell>
        <mxCell id="8jH8_pliTZvW4bIovDeC-7" value="Move east or west?" style="rhombus;whiteSpace=wrap;html=1;" vertex="1" parent="1">
          <mxGeometry x="-420" y="-700" width="80" height="80" as="geometry" />
        </mxCell>
        <mxCell id="8jH8_pliTZvW4bIovDeC-12" value="Stay Put" style="text;html=1;align=center;verticalAlign=middle;resizable=0;points=[];autosize=1;strokeColor=none;fillColor=none;" vertex="1" parent="1">
          <mxGeometry x="930" y="-810" width="70" height="30" as="geometry" />
        </mxCell>
        <mxCell id="8jH8_pliTZvW4bIovDeC-16" value="" style="edgeStyle=orthogonalEdgeStyle;rounded=0;orthogonalLoop=1;jettySize=auto;html=1;" edge="1" parent="1" source="8jH8_pliTZvW4bIovDeC-13" target="QoruymZTno_trSx14cLo-10">
          <mxGeometry relative="1" as="geometry" />
        </mxCell>
        <mxCell id="8jH8_pliTZvW4bIovDeC-25" value="" style="edgeStyle=orthogonalEdgeStyle;rounded=0;orthogonalLoop=1;jettySize=auto;html=1;" edge="1" parent="1" source="8jH8_pliTZvW4bIovDeC-13" target="8jH8_pliTZvW4bIovDeC-24">
          <mxGeometry relative="1" as="geometry" />
        </mxCell>
        <mxCell id="8jH8_pliTZvW4bIovDeC-13" value="Build a fire or sleep on the ground?" style="rhombus;whiteSpace=wrap;html=1;" vertex="1" parent="1">
          <mxGeometry x="1960" y="-650" width="120" height="80" as="geometry" />
        </mxCell>
        <mxCell id="8jH8_pliTZvW4bIovDeC-21" value="Sleep on the ground" style="text;html=1;align=center;verticalAlign=middle;resizable=0;points=[];autosize=1;strokeColor=none;fillColor=none;" vertex="1" parent="1">
          <mxGeometry x="2080" y="-640" width="130" height="30" as="geometry" />
        </mxCell>
        <mxCell id="8jH8_pliTZvW4bIovDeC-22" value="Build a fire" style="text;html=1;align=center;verticalAlign=middle;resizable=0;points=[];autosize=1;strokeColor=none;fillColor=none;" vertex="1" parent="1">
          <mxGeometry x="1825.62" y="-640" width="80" height="30" as="geometry" />
        </mxCell>
        <mxCell id="8jH8_pliTZvW4bIovDeC-39" value="" style="edgeStyle=orthogonalEdgeStyle;rounded=0;orthogonalLoop=1;jettySize=auto;html=1;" edge="1" parent="1" source="8jH8_pliTZvW4bIovDeC-24" target="8jH8_pliTZvW4bIovDeC-38">
          <mxGeometry relative="1" as="geometry" />
        </mxCell>
        <mxCell id="8jH8_pliTZvW4bIovDeC-24" value="It is too cold, so you start building a fire pit. You need wood and fuel." style="shape=parallelogram;perimeter=parallelogramPerimeter;whiteSpace=wrap;html=1;fixedSize=1;" vertex="1" parent="1">
          <mxGeometry x="1740" y="-510" width="165.62" height="60" as="geometry" />
        </mxCell>
        <mxCell id="8jH8_pliTZvW4bIovDeC-31" value="" style="edgeStyle=orthogonalEdgeStyle;rounded=0;orthogonalLoop=1;jettySize=auto;html=1;" edge="1" parent="1" source="8jH8_pliTZvW4bIovDeC-30" target="8jH8_pliTZvW4bIovDeC-24">
          <mxGeometry relative="1" as="geometry" />
        </mxCell>
        <mxCell id="8jH8_pliTZvW4bIovDeC-30" value="Build a fire or sleep on the ground?" style="rhombus;whiteSpace=wrap;html=1;" vertex="1" parent="1">
          <mxGeometry x="2245" y="-520" width="130" height="80" as="geometry" />
        </mxCell>
        <mxCell id="8jH8_pliTZvW4bIovDeC-33" value="Build a fire" style="text;html=1;align=center;verticalAlign=middle;resizable=0;points=[];autosize=1;strokeColor=none;fillColor=none;" vertex="1" parent="1">
          <mxGeometry x="2165" y="-510" width="80" height="30" as="geometry" />
        </mxCell>
        <mxCell id="8jH8_pliTZvW4bIovDeC-43" value="" style="edgeStyle=orthogonalEdgeStyle;rounded=0;orthogonalLoop=1;jettySize=auto;html=1;exitX=1;exitY=0.5;exitDx=0;exitDy=0;" edge="1" parent="1" source="8jH8_pliTZvW4bIovDeC-37" target="8jH8_pliTZvW4bIovDeC-41">
          <mxGeometry relative="1" as="geometry">
            <Array as="points">
              <mxPoint x="1465" y="-380" />
            </Array>
          </mxGeometry>
        </mxCell>
        <mxCell id="8jH8_pliTZvW4bIovDeC-37" value="You&#39;ll need enough wood to last a whole night, so you decide to start with that." style="shape=parallelogram;perimeter=parallelogramPerimeter;whiteSpace=wrap;html=1;fixedSize=1;" vertex="1" parent="1">
          <mxGeometry x="1390" y="-410" width="150" height="60" as="geometry" />
        </mxCell>
        <mxCell id="8jH8_pliTZvW4bIovDeC-40" value="" style="edgeStyle=orthogonalEdgeStyle;rounded=0;orthogonalLoop=1;jettySize=auto;html=1;" edge="1" parent="1" source="8jH8_pliTZvW4bIovDeC-38" target="8jH8_pliTZvW4bIovDeC-37">
          <mxGeometry relative="1" as="geometry" />
        </mxCell>
        <mxCell id="8jH8_pliTZvW4bIovDeC-59" value="" style="edgeStyle=orthogonalEdgeStyle;rounded=0;orthogonalLoop=1;jettySize=auto;html=1;" edge="1" parent="1" source="8jH8_pliTZvW4bIovDeC-38" target="8jH8_pliTZvW4bIovDeC-58">
          <mxGeometry relative="1" as="geometry" />
        </mxCell>
        <mxCell id="8jH8_pliTZvW4bIovDeC-38" value="Gather wood first or gather fuel first?" style="rhombus;whiteSpace=wrap;html=1;" vertex="1" parent="1">
          <mxGeometry x="1759.31" y="-420" width="127" height="80" as="geometry" />
        </mxCell>
        <mxCell id="8jH8_pliTZvW4bIovDeC-46" value="" style="edgeStyle=orthogonalEdgeStyle;rounded=0;orthogonalLoop=1;jettySize=auto;html=1;" edge="1" parent="1" source="8jH8_pliTZvW4bIovDeC-41" target="8jH8_pliTZvW4bIovDeC-44">
          <mxGeometry relative="1" as="geometry" />
        </mxCell>
        <mxCell id="8jH8_pliTZvW4bIovDeC-47" value="" style="edgeStyle=orthogonalEdgeStyle;rounded=0;orthogonalLoop=1;jettySize=auto;html=1;" edge="1" parent="1" source="8jH8_pliTZvW4bIovDeC-41" target="8jH8_pliTZvW4bIovDeC-45">
          <mxGeometry relative="1" as="geometry" />
        </mxCell>
        <mxCell id="8jH8_pliTZvW4bIovDeC-41" value="Chop down small tree or big tree?" style="rhombus;whiteSpace=wrap;html=1;" vertex="1" parent="1">
          <mxGeometry x="1405" y="-280" width="120" height="80" as="geometry" />
        </mxCell>
        <mxCell id="8jH8_pliTZvW4bIovDeC-44" value="You chop down the small tree and receive 2 sticks." style="shape=parallelogram;perimeter=parallelogramPerimeter;whiteSpace=wrap;html=1;fixedSize=1;" vertex="1" parent="1">
          <mxGeometry x="1740" y="-270" width="140" height="60" as="geometry" />
        </mxCell>
        <mxCell id="8jH8_pliTZvW4bIovDeC-55" value="" style="edgeStyle=orthogonalEdgeStyle;rounded=0;orthogonalLoop=1;jettySize=auto;html=1;" edge="1" parent="1" source="8jH8_pliTZvW4bIovDeC-45" target="8jH8_pliTZvW4bIovDeC-51">
          <mxGeometry relative="1" as="geometry" />
        </mxCell>
        <mxCell id="8jH8_pliTZvW4bIovDeC-45" value="You chop the big tree 57 times and it still won&#39;t fall" style="shape=parallelogram;perimeter=parallelogramPerimeter;whiteSpace=wrap;html=1;fixedSize=1;" vertex="1" parent="1">
          <mxGeometry x="1140" y="-270" width="150" height="60" as="geometry" />
        </mxCell>
        <mxCell id="8jH8_pliTZvW4bIovDeC-48" value="Gather wood" style="text;html=1;align=center;verticalAlign=middle;resizable=0;points=[];autosize=1;strokeColor=none;fillColor=none;" vertex="1" parent="1">
          <mxGeometry x="1670" y="-410" width="90" height="30" as="geometry" />
        </mxCell>
        <mxCell id="8jH8_pliTZvW4bIovDeC-49" value="Chop big tree" style="text;html=1;align=center;verticalAlign=middle;resizable=0;points=[];autosize=1;strokeColor=none;fillColor=none;" vertex="1" parent="1">
          <mxGeometry x="1300" y="-270" width="100" height="30" as="geometry" />
        </mxCell>
        <mxCell id="8jH8_pliTZvW4bIovDeC-50" value="Chop small tree" style="text;html=1;align=center;verticalAlign=middle;resizable=0;points=[];autosize=1;strokeColor=none;fillColor=none;" vertex="1" parent="1">
          <mxGeometry x="1630" y="-270" width="110" height="30" as="geometry" />
        </mxCell>
        <mxCell id="8jH8_pliTZvW4bIovDeC-56" value="" style="edgeStyle=orthogonalEdgeStyle;rounded=0;orthogonalLoop=1;jettySize=auto;html=1;" edge="1" parent="1" source="8jH8_pliTZvW4bIovDeC-51" target="8jH8_pliTZvW4bIovDeC-54">
          <mxGeometry relative="1" as="geometry" />
        </mxCell>
        <mxCell id="8jH8_pliTZvW4bIovDeC-57" value="" style="edgeStyle=orthogonalEdgeStyle;rounded=0;orthogonalLoop=1;jettySize=auto;html=1;" edge="1" parent="1" source="8jH8_pliTZvW4bIovDeC-51" target="8jH8_pliTZvW4bIovDeC-52">
          <mxGeometry relative="1" as="geometry" />
        </mxCell>
        <mxCell id="8jH8_pliTZvW4bIovDeC-51" value="Keep chopping?" style="rhombus;whiteSpace=wrap;html=1;" vertex="1" parent="1">
          <mxGeometry x="1175" y="-140" width="80" height="80" as="geometry" />
        </mxCell>
        <mxCell id="8jH8_pliTZvW4bIovDeC-74" value="" style="edgeStyle=orthogonalEdgeStyle;rounded=0;orthogonalLoop=1;jettySize=auto;html=1;" edge="1" parent="1" source="8jH8_pliTZvW4bIovDeC-52" target="8jH8_pliTZvW4bIovDeC-73">
          <mxGeometry relative="1" as="geometry" />
        </mxCell>
        <mxCell id="8jH8_pliTZvW4bIovDeC-52" value="You chop down the small tree and receive 2 sticks. It is now twilight." style="shape=parallelogram;perimeter=parallelogramPerimeter;whiteSpace=wrap;html=1;fixedSize=1;" vertex="1" parent="1">
          <mxGeometry x="1330" y="-130" width="160" height="60" as="geometry" />
        </mxCell>
        <mxCell id="8jH8_pliTZvW4bIovDeC-54" value="You finally cut the big tree and receive 4 logs. it is now dusk." style="shape=parallelogram;perimeter=parallelogramPerimeter;whiteSpace=wrap;html=1;fixedSize=1;" vertex="1" parent="1">
          <mxGeometry x="950" y="-130" width="140" height="60" as="geometry" />
        </mxCell>
        <mxCell id="8jH8_pliTZvW4bIovDeC-64" value="" style="edgeStyle=orthogonalEdgeStyle;rounded=0;orthogonalLoop=1;jettySize=auto;html=1;" edge="1" parent="1" source="8jH8_pliTZvW4bIovDeC-58" target="8jH8_pliTZvW4bIovDeC-60">
          <mxGeometry relative="1" as="geometry" />
        </mxCell>
        <mxCell id="8jH8_pliTZvW4bIovDeC-58" value="Miraculously you find a can of petrol and a car battery. Which one do you take?" style="shape=parallelogram;perimeter=parallelogramPerimeter;whiteSpace=wrap;html=1;fixedSize=1;" vertex="1" parent="1">
          <mxGeometry x="2080" y="-410" width="190" height="60" as="geometry" />
        </mxCell>
        <mxCell id="8jH8_pliTZvW4bIovDeC-66" value="" style="edgeStyle=orthogonalEdgeStyle;rounded=0;orthogonalLoop=1;jettySize=auto;html=1;" edge="1" parent="1" source="8jH8_pliTZvW4bIovDeC-60" target="8jH8_pliTZvW4bIovDeC-65">
          <mxGeometry relative="1" as="geometry" />
        </mxCell>
        <mxCell id="8jH8_pliTZvW4bIovDeC-60" value="Gas or Electric?" style="rhombus;whiteSpace=wrap;html=1;" vertex="1" parent="1">
          <mxGeometry x="2125" y="-290" width="100" height="70" as="geometry" />
        </mxCell>
        <mxCell id="8jH8_pliTZvW4bIovDeC-61" value="Gather fuel" style="text;html=1;align=center;verticalAlign=middle;resizable=0;points=[];autosize=1;strokeColor=none;fillColor=none;" vertex="1" parent="1">
          <mxGeometry x="1930" y="-410" width="80" height="30" as="geometry" />
        </mxCell>
        <mxCell id="8jH8_pliTZvW4bIovDeC-70" value="" style="edgeStyle=orthogonalEdgeStyle;rounded=0;orthogonalLoop=1;jettySize=auto;html=1;" edge="1" parent="1" source="8jH8_pliTZvW4bIovDeC-65" target="8jH8_pliTZvW4bIovDeC-67">
          <mxGeometry relative="1" as="geometry" />
        </mxCell>
        <mxCell id="8jH8_pliTZvW4bIovDeC-65" value="You carry back the battery and it&#39;s dark. You need light." style="shape=parallelogram;perimeter=parallelogramPerimeter;whiteSpace=wrap;html=1;fixedSize=1;" vertex="1" parent="1">
          <mxGeometry x="2345" y="-285" width="180" height="60" as="geometry" />
        </mxCell>
        <mxCell id="8jH8_pliTZvW4bIovDeC-69" value="" style="edgeStyle=orthogonalEdgeStyle;rounded=0;orthogonalLoop=1;jettySize=auto;html=1;" edge="1" parent="1" source="8jH8_pliTZvW4bIovDeC-67" target="8jH8_pliTZvW4bIovDeC-68">
          <mxGeometry relative="1" as="geometry" />
        </mxCell>
        <mxCell id="8jH8_pliTZvW4bIovDeC-72" value="" style="edgeStyle=orthogonalEdgeStyle;rounded=0;orthogonalLoop=1;jettySize=auto;html=1;" edge="1" parent="1" source="8jH8_pliTZvW4bIovDeC-67" target="8jH8_pliTZvW4bIovDeC-71">
          <mxGeometry relative="1" as="geometry" />
        </mxCell>
        <mxCell id="8jH8_pliTZvW4bIovDeC-67" value="Charge your phone or start an electrical fire?" style="rhombus;whiteSpace=wrap;html=1;" vertex="1" parent="1">
          <mxGeometry x="2360" y="-150" width="150" height="80" as="geometry" />
        </mxCell>
        <mxCell id="8jH8_pliTZvW4bIovDeC-68" value="Your phone charges and you call for an Uber boat. The end" style="shape=parallelogram;perimeter=parallelogramPerimeter;whiteSpace=wrap;html=1;fixedSize=1;" vertex="1" parent="1">
          <mxGeometry x="2110" y="-140" width="160" height="60" as="geometry" />
        </mxCell>
        <mxCell id="8jH8_pliTZvW4bIovDeC-71" value="You start an electrical fire for light, and suffer lethal burns and instant death." style="shape=parallelogram;perimeter=parallelogramPerimeter;whiteSpace=wrap;html=1;fixedSize=1;" vertex="1" parent="1">
          <mxGeometry x="2600" y="-140" width="160" height="60" as="geometry" />
        </mxCell>
        <mxCell id="8jH8_pliTZvW4bIovDeC-73" value="Scavenge for fuel or try to start a fire with two sticks" style="rhombus;whiteSpace=wrap;html=1;" vertex="1" parent="1">
          <mxGeometry x="1355" y="-10" width="110" height="80" as="geometry" />
        </mxCell>
      </root>
    </mxGraphModel>
  </diagram>
</mxfile>
